<svg width="67" height="67" viewBox="0 0 67 67" fill="none" xmlns="http://www.w3.org/2000/svg">
<path d="M35.2316 22.2967V22.6535L35.569 22.7696C38.0934 23.6381 39.9201 26.0108 39.9201 28.8144C39.9201 29.7704 39.1425 30.546 38.1884 30.546C37.2311 30.546 36.454 29.77 36.454 28.8144C36.454 27.1867 35.1262 25.8632 33.5 25.8632C31.8731 25.8632 30.5488 27.1874 30.5488 28.8144C30.5488 30.4438 31.8727 31.7684 33.5 31.7684C37.0399 31.7684 39.9201 34.6485 39.9201 38.1884C39.9201 40.9918 38.0937 43.3619 35.569 44.2304L35.2316 44.3465V44.7033V45.9696C35.2316 46.9301 34.4552 47.7069 33.5 47.7069C32.5415 47.7069 31.7655 46.9297 31.7655 45.9696V44.7033V44.3465L31.4282 44.2304C28.9041 43.3621 27.0827 40.9924 27.0827 38.1884C27.0827 37.2307 27.8563 36.454 28.8144 36.454C29.7709 36.454 30.5488 37.232 30.5488 38.1884C30.5488 39.8178 31.8727 41.1424 33.5 41.1424C35.1266 41.1424 36.454 39.8186 36.454 38.1884C36.454 36.5615 35.1269 35.2345 33.5 35.2345C29.9602 35.2345 27.0827 32.3572 27.0827 28.8144C27.0827 26.0101 28.9044 23.6378 31.4282 22.7696L31.7655 22.6535V22.2967V21.0304C31.7655 20.0759 32.5415 19.2959 33.5 19.2959C34.4552 19.2959 35.2316 20.0755 35.2316 21.0304V22.2967ZM54.7864 44.7395L54.7862 44.7398C54.3412 45.5819 53.2954 45.9081 52.4446 45.4598C51.5973 45.0118 51.2746 43.9642 51.7244 43.1169L51.7249 43.1161C53.2771 40.1789 54.1017 36.8539 54.1017 33.5C54.1017 22.1444 44.8583 12.9011 33.5 12.9011C22.1417 12.9011 12.8983 22.1444 12.8983 33.5C12.8983 44.8612 22.1417 54.1017 33.5 54.1017C36.8465 54.1017 40.0411 53.3258 42.9811 51.791C43.8318 51.3482 44.8791 51.6835 45.3209 52.5301C45.7619 53.3777 45.4309 54.4278 44.5835 54.8657L44.5821 54.8664C41.1899 56.6328 37.3575 57.565 33.5 57.565C20.2315 57.565 9.43502 46.7685 9.43502 33.5C9.43502 20.2343 20.2315 9.43784 33.5 9.43784C46.7658 9.43784 57.565 20.2344 57.565 33.5C57.565 37.4154 56.6052 41.303 54.7864 44.7395ZM15.6083 5.76994L15.6087 5.76967C20.9393 2.32408 27.1262 0.5 33.5 0.5C51.6961 0.5 66.5 15.3067 66.5 33.5C66.5 51.6989 51.6962 66.5 33.5 66.5C15.3011 66.5 0.5 51.699 0.5 33.5C0.5 27.1899 2.29087 21.0473 5.67813 15.7502L5.67862 15.7494C6.19104 14.9448 7.26293 14.7083 8.06902 15.2238L8.06954 15.2241C8.87735 15.7394 9.11385 16.8117 8.59805 17.6206C5.56617 22.359 3.9661 27.8529 3.9661 33.5C3.9661 49.786 17.214 63.0339 33.5 63.0339C49.7861 63.0339 63.0311 49.7859 63.0311 33.5C63.0311 17.2168 49.786 3.96892 33.5 3.96892C27.7988 3.96892 22.2567 5.60026 17.4929 8.68035C16.6816 9.19687 15.6146 8.96771 15.0929 8.16524C14.5731 7.36139 14.8025 6.28966 15.6083 5.76994Z" fill="black" stroke="white"/>
</svg>
