<svg width="67" height="67" viewBox="0 0 67 67" fill="none" xmlns="http://www.w3.org/2000/svg">
<path d="M39.6695 27.6841L39.67 27.6837C40.3208 27.0664 41.3312 27.0953 41.9542 27.7135C42.5684 28.3627 42.5375 29.3646 41.8839 29.9844L41.8838 29.9845L32.0051 39.3586L32.005 39.3585L31.9979 39.3656C31.7105 39.6525 31.2852 39.8169 30.8982 39.8169C30.4738 39.8169 30.0491 39.6548 29.7202 39.3279L25.0075 34.4208L25.0075 34.4208L25.0016 34.4148C24.3869 33.8013 24.3869 32.762 25.0349 32.1475L25.035 32.1476L25.0422 32.1404C25.6573 31.5264 26.6996 31.5264 27.3156 32.1736L27.3161 32.1741L30.6497 35.6641L30.9245 35.9518L31.2137 35.6784L39.6695 27.6841Z" fill="black" stroke="white" stroke-width="0.8"/>
<mask id="path-2-inside-1_9_3" fill="white">
<path d="M56.8756 55.2722C56.7943 55.1099 56.6723 54.9476 56.5504 54.7853L55.7373 53.6084C55.3714 53.0403 54.9649 52.5127 54.599 51.9446C56.3064 49.9968 57.7293 47.846 58.8269 45.5329C59.1522 45.6141 59.518 45.6546 59.8433 45.7358C60.7376 45.8981 61.5913 46.0604 62.4857 46.2228C62.6483 46.2633 62.8109 46.2633 62.9329 46.3039C63.8273 46.3851 64.681 45.817 65.0062 44.9648C65.616 43.2604 66.1038 41.4748 66.4291 39.6893C66.7543 37.9038 66.9575 36.0371 66.9982 34.2515C67.0388 33.3182 66.3884 32.466 65.4534 32.2225C65.4127 32.2225 65.2908 32.1819 65.2501 32.1819L64.0712 31.9384C63.1768 31.7761 62.3231 31.6138 61.4694 31.4514C61.2661 28.9355 60.7783 26.4195 59.8839 24.0252C60.9815 23.2948 62.0385 22.5237 63.1362 21.8339C63.9899 21.2657 64.2744 20.2106 63.8679 19.2773C62.3231 15.9497 60.2091 12.9467 57.6886 10.2684C56.9975 9.53796 55.8999 9.4568 55.0868 10.0249C54.477 10.4307 53.9079 10.8365 53.2981 11.2423C52.8103 11.567 52.3224 11.8916 51.8346 12.2569C49.8832 10.5931 47.7693 9.21331 45.4521 8.11764C45.4927 7.91474 45.5334 7.67125 45.574 7.46835L45.6553 6.90022C45.6553 6.85964 45.696 6.77848 45.696 6.69732L45.8179 5.96687C45.8992 5.39874 46.0212 4.8712 46.1432 4.26249C46.3464 3.28855 45.7773 2.27404 44.8423 1.9494C43.1755 1.34069 41.4274 0.894303 39.6387 0.569659C37.8906 0.245014 36.1019 0.0421113 34.3131 0.00153077C33.2968 -0.0390498 32.4024 0.731981 32.2398 1.74649C32.1585 2.31462 32.0365 2.84217 31.9552 3.4103L31.8333 4.14075C31.8333 4.22191 31.7926 4.26249 31.7926 4.34365L31.6707 4.91178C31.63 5.11468 31.5894 5.31758 31.5487 5.56106C29.0282 5.72339 26.5077 6.25093 24.1092 7.10313C23.784 6.61616 23.4587 6.12919 23.0929 5.64223C22.6863 5.03352 22.2798 4.46539 21.8733 3.85668C21.3041 3.04507 20.2472 2.72043 19.3528 3.16681C16.0192 4.70887 12.9703 6.77848 10.3278 9.33506C9.59605 10.0249 9.47409 11.1612 10.0839 11.9728C10.8156 13.0279 11.5474 14.083 12.2385 15.1381L12.2791 15.2192C10.6124 17.1265 9.23017 19.2773 8.13253 21.5498C7.27882 21.3875 6.4251 21.2252 5.57139 21.0628L4.3518 20.8193C4.31114 20.8193 4.18919 20.7788 4.18919 20.7788C3.25416 20.657 2.31914 21.1846 1.99392 22.0773C1.38412 23.7817 0.896286 25.5673 0.571061 27.3528C0.245837 29.1384 0.0425713 30.9645 0.0019182 32.7906C-0.0387349 33.6834 0.571061 34.495 1.42478 34.7791C1.58739 34.8196 1.70935 34.8602 1.87196 34.8602C2.72567 35.0225 3.62004 35.1849 4.47376 35.3472C4.83963 35.4283 5.16486 35.4689 5.53074 35.5501C5.734 38.1067 6.26249 40.6227 7.11621 43.0575C6.54706 43.4633 5.97792 43.8285 5.40878 44.2343L4.27049 45.0053C4.06723 45.1271 3.90461 45.2488 3.78265 45.3706C3.01025 45.9387 2.76633 46.9938 3.17286 47.846C4.71768 51.133 6.79098 54.136 9.31147 56.7331C10.0026 57.423 11.0596 57.5447 11.8726 57.0172C11.9133 57.0172 12.0352 56.8954 12.0352 56.8954C12.7263 56.4085 13.4581 55.8809 14.1898 55.394C14.5151 55.1505 14.8403 54.9476 15.1655 54.7447C17.1169 56.4085 19.2308 57.7882 21.5481 58.8839C21.4261 59.452 21.3448 60.0201 21.2228 60.5883C21.1009 61.2781 20.9789 61.968 20.8163 62.6985C20.8163 62.739 20.7756 62.8608 20.7756 62.8608C20.613 63.8347 21.1822 64.7275 22.0765 65.0521C23.7433 65.6608 25.4914 66.1072 27.2395 66.4319C28.9876 66.7565 30.817 66.9594 32.565 67H32.6057C33.5407 67 34.3538 66.3507 34.557 65.4579C34.557 65.4174 34.5977 65.255 34.5977 65.2145C34.7196 64.5246 34.8416 63.8347 34.9636 63.1448C35.0855 62.5767 35.1668 62.0086 35.2888 61.481C37.8499 61.3187 40.3298 60.7912 42.769 59.939C43.0129 60.2636 43.2161 60.5883 43.4601 60.9129C43.9479 61.6434 44.4357 62.3332 44.9236 63.0637C44.9642 63.1043 45.0455 63.226 45.0862 63.2666C45.6553 64.0376 46.7123 64.2811 47.566 63.8753C50.8589 62.3332 53.8672 60.3042 56.5097 57.7882C57.2415 57.1389 57.4041 56.0838 56.8756 55.2722ZM47.4441 59.452C47.2408 59.168 47.0782 58.8839 46.8749 58.5998C46.4277 57.9505 45.9806 57.2607 45.5334 56.6114C45.3708 56.3679 45.2081 56.165 45.0455 56.0027C44.4764 55.4345 43.582 55.2722 42.8503 55.5969C39.9639 56.8143 36.8743 57.4636 33.744 57.5042C32.9716 57.5042 32.2398 57.9911 31.9146 58.681C31.7926 58.9651 31.7113 59.2897 31.63 59.6143C31.4674 60.5477 31.3048 61.4405 31.1422 62.3738C31.1015 62.5361 31.0609 62.6985 31.0609 62.8608C30.0852 62.7796 29.0689 62.6579 28.0932 62.455C27.1175 62.2521 26.1418 62.0492 25.1662 61.7651C25.2068 61.6028 25.2068 61.4405 25.2475 61.3187C25.4101 60.3854 25.5727 59.452 25.776 58.5592C25.8573 58.194 25.8979 57.8694 25.8573 57.5853C25.8166 56.8143 25.3288 56.1244 24.597 55.8404C21.67 54.6635 19.0276 52.9591 16.7916 50.7678C16.2225 50.1997 15.3281 50.0373 14.5964 50.362C14.3525 50.4431 14.1085 50.6055 13.9053 50.7678C13.2548 51.2142 12.6044 51.6606 11.9133 52.1475C11.6287 52.3504 11.3441 52.5127 11.0596 52.7157C9.718 51.1736 8.57972 49.4692 7.60404 47.6837L7.68535 47.6025C8.57972 46.9938 9.47409 46.3445 10.4091 45.7358C10.653 45.5735 10.8563 45.4112 11.0189 45.2488C11.588 44.6807 11.7507 43.7879 11.4254 43.0169C10.1652 40.0951 9.51474 37.011 9.47409 33.8457C9.47409 32.9529 8.86429 32.1819 8.01058 31.9384C7.88862 31.8978 7.76666 31.8978 7.6447 31.8573C6.83164 31.6949 6.01857 31.5732 5.20551 31.4109C4.83963 31.3297 4.47376 31.2891 4.10788 31.208C4.18919 30.1935 4.31114 29.1789 4.51441 28.1644C4.71768 27.1499 4.96159 26.1354 5.24617 25.1209C6.30315 25.3238 7.36013 25.5267 8.41711 25.7296C8.82364 25.8108 9.18951 25.8513 9.55539 25.8108C10.3278 25.7702 10.9783 25.2832 11.2628 24.5528C12.4418 21.6715 14.1085 19.0744 16.3038 16.8425C16.8729 16.2743 17.0356 15.4221 16.751 14.6511C16.5884 14.2859 16.3851 13.9612 16.1005 13.5554L15.572 12.825C15.1655 12.2569 14.7996 11.6481 14.3931 11.08C15.9786 9.74086 17.686 8.56402 19.5154 7.59009C19.5967 7.71183 19.678 7.83357 19.7593 7.95532C20.2878 8.72635 20.8163 9.49738 21.3041 10.2684C21.4667 10.5525 21.7513 10.9177 22.2392 11.2423C22.8083 11.6481 23.5401 11.6887 24.1905 11.4452C27.0769 10.2278 30.1259 9.61912 33.2561 9.57854C34.0285 9.57854 34.7196 9.13215 35.0855 8.44228C35.2075 8.15822 35.2888 7.87416 35.3701 7.50893C35.4514 6.90022 35.5734 6.33209 35.6953 5.72339L35.8579 4.95236C35.8579 4.8712 35.8986 4.83061 35.8986 4.74945L35.9799 4.22191V4.18133C36.9556 4.26249 37.9719 4.38423 38.9476 4.58713C39.9232 4.79003 40.8989 4.99294 41.8746 5.277V5.31758L41.7933 5.84513C41.7933 5.88571 41.7526 5.96687 41.7526 6.04803L41.59 6.81906C41.4681 7.42777 41.3868 7.9959 41.2648 8.60461C41.1835 8.92925 41.1835 9.25389 41.1835 9.53796C41.2241 10.309 41.7526 10.9989 42.4437 11.2829C45.3301 12.4192 47.9319 14.1236 50.2085 16.2743C50.6963 16.7613 51.4281 16.9642 52.0785 16.8019C52.485 16.7207 52.8916 16.5178 53.2981 16.2337C54.0705 15.7062 54.8429 15.1787 55.6153 14.6511C55.7373 14.5699 55.8593 14.4888 55.9812 14.4076C57.3228 15.9903 58.5017 17.6946 59.4774 19.5208C58.8269 19.9672 58.1765 20.4135 57.526 20.8599L56.9975 21.2252C56.591 21.5092 56.2658 21.7121 55.9812 22.0368C55.4527 22.6049 55.2901 23.4571 55.6153 24.1875C56.8349 27.0687 57.4854 30.1123 57.526 33.1964C57.526 33.9674 57.9732 34.6573 58.705 34.982C59.0302 35.1443 59.3554 35.2254 59.7619 35.3066C60.8189 35.4689 61.8759 35.6718 62.9329 35.8747C62.8516 36.8892 62.7296 37.9443 62.5264 38.9588C62.3231 39.9734 62.0792 40.9879 61.7946 41.9618C61.4287 41.8806 61.0222 41.7995 60.6563 41.7589C59.8433 41.5966 59.0708 41.4748 58.2578 41.3125C58.1358 41.2719 58.0139 41.2719 57.8919 41.2719C56.9975 41.1908 56.1438 41.6777 55.8186 42.5299C54.6397 45.4517 52.8916 48.0895 50.6963 50.362C50.1272 50.9301 49.9646 51.8229 50.2898 52.5939C50.3711 52.7968 50.493 53.0403 50.6963 53.2838C51.3061 54.136 51.9159 55.0287 52.5257 55.9215L52.607 56.0838C50.9402 57.3418 49.2328 58.4781 47.4441 59.452Z"/>
</mask>
<path d="M56.8756 55.2722C56.7943 55.1099 56.6723 54.9476 56.5504 54.7853L55.7373 53.6084C55.3714 53.0403 54.9649 52.5127 54.599 51.9446C56.3064 49.9968 57.7293 47.846 58.8269 45.5329C59.1522 45.6141 59.518 45.6546 59.8433 45.7358C60.7376 45.8981 61.5913 46.0604 62.4857 46.2228C62.6483 46.2633 62.8109 46.2633 62.9329 46.3039C63.8273 46.3851 64.681 45.817 65.0062 44.9648C65.616 43.2604 66.1038 41.4748 66.4291 39.6893C66.7543 37.9038 66.9575 36.0371 66.9982 34.2515C67.0388 33.3182 66.3884 32.466 65.4534 32.2225C65.4127 32.2225 65.2908 32.1819 65.2501 32.1819L64.0712 31.9384C63.1768 31.7761 62.3231 31.6138 61.4694 31.4514C61.2661 28.9355 60.7783 26.4195 59.8839 24.0252C60.9815 23.2948 62.0385 22.5237 63.1362 21.8339C63.9899 21.2657 64.2744 20.2106 63.8679 19.2773C62.3231 15.9497 60.2091 12.9467 57.6886 10.2684C56.9975 9.53796 55.8999 9.4568 55.0868 10.0249C54.477 10.4307 53.9079 10.8365 53.2981 11.2423C52.8103 11.567 52.3224 11.8916 51.8346 12.2569C49.8832 10.5931 47.7693 9.21331 45.4521 8.11764C45.4927 7.91474 45.5334 7.67125 45.574 7.46835L45.6553 6.90022C45.6553 6.85964 45.696 6.77848 45.696 6.69732L45.8179 5.96687C45.8992 5.39874 46.0212 4.8712 46.1432 4.26249C46.3464 3.28855 45.7773 2.27404 44.8423 1.9494C43.1755 1.34069 41.4274 0.894303 39.6387 0.569659C37.8906 0.245014 36.1019 0.0421113 34.3131 0.00153077C33.2968 -0.0390498 32.4024 0.731981 32.2398 1.74649C32.1585 2.31462 32.0365 2.84217 31.9552 3.4103L31.8333 4.14075C31.8333 4.22191 31.7926 4.26249 31.7926 4.34365L31.6707 4.91178C31.63 5.11468 31.5894 5.31758 31.5487 5.56106C29.0282 5.72339 26.5077 6.25093 24.1092 7.10313C23.784 6.61616 23.4587 6.12919 23.0929 5.64223C22.6863 5.03352 22.2798 4.46539 21.8733 3.85668C21.3041 3.04507 20.2472 2.72043 19.3528 3.16681C16.0192 4.70887 12.9703 6.77848 10.3278 9.33506C9.59605 10.0249 9.47409 11.1612 10.0839 11.9728C10.8156 13.0279 11.5474 14.083 12.2385 15.1381L12.2791 15.2192C10.6124 17.1265 9.23017 19.2773 8.13253 21.5498C7.27882 21.3875 6.4251 21.2252 5.57139 21.0628L4.3518 20.8193C4.31114 20.8193 4.18919 20.7788 4.18919 20.7788C3.25416 20.657 2.31914 21.1846 1.99392 22.0773C1.38412 23.7817 0.896286 25.5673 0.571061 27.3528C0.245837 29.1384 0.0425713 30.9645 0.0019182 32.7906C-0.0387349 33.6834 0.571061 34.495 1.42478 34.7791C1.58739 34.8196 1.70935 34.8602 1.87196 34.8602C2.72567 35.0225 3.62004 35.1849 4.47376 35.3472C4.83963 35.4283 5.16486 35.4689 5.53074 35.5501C5.734 38.1067 6.26249 40.6227 7.11621 43.0575C6.54706 43.4633 5.97792 43.8285 5.40878 44.2343L4.27049 45.0053C4.06723 45.1271 3.90461 45.2488 3.78265 45.3706C3.01025 45.9387 2.76633 46.9938 3.17286 47.846C4.71768 51.133 6.79098 54.136 9.31147 56.7331C10.0026 57.423 11.0596 57.5447 11.8726 57.0172C11.9133 57.0172 12.0352 56.8954 12.0352 56.8954C12.7263 56.4085 13.4581 55.8809 14.1898 55.394C14.5151 55.1505 14.8403 54.9476 15.1655 54.7447C17.1169 56.4085 19.2308 57.7882 21.5481 58.8839C21.4261 59.452 21.3448 60.0201 21.2228 60.5883C21.1009 61.2781 20.9789 61.968 20.8163 62.6985C20.8163 62.739 20.7756 62.8608 20.7756 62.8608C20.613 63.8347 21.1822 64.7275 22.0765 65.0521C23.7433 65.6608 25.4914 66.1072 27.2395 66.4319C28.9876 66.7565 30.817 66.9594 32.565 67H32.6057C33.5407 67 34.3538 66.3507 34.557 65.4579C34.557 65.4174 34.5977 65.255 34.5977 65.2145C34.7196 64.5246 34.8416 63.8347 34.9636 63.1448C35.0855 62.5767 35.1668 62.0086 35.2888 61.481C37.8499 61.3187 40.3298 60.7912 42.769 59.939C43.0129 60.2636 43.2161 60.5883 43.4601 60.9129C43.9479 61.6434 44.4357 62.3332 44.9236 63.0637C44.9642 63.1043 45.0455 63.226 45.0862 63.2666C45.6553 64.0376 46.7123 64.2811 47.566 63.8753C50.8589 62.3332 53.8672 60.3042 56.5097 57.7882C57.2415 57.1389 57.4041 56.0838 56.8756 55.2722ZM47.4441 59.452C47.2408 59.168 47.0782 58.8839 46.8749 58.5998C46.4277 57.9505 45.9806 57.2607 45.5334 56.6114C45.3708 56.3679 45.2081 56.165 45.0455 56.0027C44.4764 55.4345 43.582 55.2722 42.8503 55.5969C39.9639 56.8143 36.8743 57.4636 33.744 57.5042C32.9716 57.5042 32.2398 57.9911 31.9146 58.681C31.7926 58.9651 31.7113 59.2897 31.63 59.6143C31.4674 60.5477 31.3048 61.4405 31.1422 62.3738C31.1015 62.5361 31.0609 62.6985 31.0609 62.8608C30.0852 62.7796 29.0689 62.6579 28.0932 62.455C27.1175 62.2521 26.1418 62.0492 25.1662 61.7651C25.2068 61.6028 25.2068 61.4405 25.2475 61.3187C25.4101 60.3854 25.5727 59.452 25.776 58.5592C25.8573 58.194 25.8979 57.8694 25.8573 57.5853C25.8166 56.8143 25.3288 56.1244 24.597 55.8404C21.67 54.6635 19.0276 52.9591 16.7916 50.7678C16.2225 50.1997 15.3281 50.0373 14.5964 50.362C14.3525 50.4431 14.1085 50.6055 13.9053 50.7678C13.2548 51.2142 12.6044 51.6606 11.9133 52.1475C11.6287 52.3504 11.3441 52.5127 11.0596 52.7157C9.718 51.1736 8.57972 49.4692 7.60404 47.6837L7.68535 47.6025C8.57972 46.9938 9.47409 46.3445 10.4091 45.7358C10.653 45.5735 10.8563 45.4112 11.0189 45.2488C11.588 44.6807 11.7507 43.7879 11.4254 43.0169C10.1652 40.0951 9.51474 37.011 9.47409 33.8457C9.47409 32.9529 8.86429 32.1819 8.01058 31.9384C7.88862 31.8978 7.76666 31.8978 7.6447 31.8573C6.83164 31.6949 6.01857 31.5732 5.20551 31.4109C4.83963 31.3297 4.47376 31.2891 4.10788 31.208C4.18919 30.1935 4.31114 29.1789 4.51441 28.1644C4.71768 27.1499 4.96159 26.1354 5.24617 25.1209C6.30315 25.3238 7.36013 25.5267 8.41711 25.7296C8.82364 25.8108 9.18951 25.8513 9.55539 25.8108C10.3278 25.7702 10.9783 25.2832 11.2628 24.5528C12.4418 21.6715 14.1085 19.0744 16.3038 16.8425C16.8729 16.2743 17.0356 15.4221 16.751 14.6511C16.5884 14.2859 16.3851 13.9612 16.1005 13.5554L15.572 12.825C15.1655 12.2569 14.7996 11.6481 14.3931 11.08C15.9786 9.74086 17.686 8.56402 19.5154 7.59009C19.5967 7.71183 19.678 7.83357 19.7593 7.95532C20.2878 8.72635 20.8163 9.49738 21.3041 10.2684C21.4667 10.5525 21.7513 10.9177 22.2392 11.2423C22.8083 11.6481 23.5401 11.6887 24.1905 11.4452C27.0769 10.2278 30.1259 9.61912 33.2561 9.57854C34.0285 9.57854 34.7196 9.13215 35.0855 8.44228C35.2075 8.15822 35.2888 7.87416 35.3701 7.50893C35.4514 6.90022 35.5734 6.33209 35.6953 5.72339L35.8579 4.95236C35.8579 4.8712 35.8986 4.83061 35.8986 4.74945L35.9799 4.22191V4.18133C36.9556 4.26249 37.9719 4.38423 38.9476 4.58713C39.9232 4.79003 40.8989 4.99294 41.8746 5.277V5.31758L41.7933 5.84513C41.7933 5.88571 41.7526 5.96687 41.7526 6.04803L41.59 6.81906C41.4681 7.42777 41.3868 7.9959 41.2648 8.60461C41.1835 8.92925 41.1835 9.25389 41.1835 9.53796C41.2241 10.309 41.7526 10.9989 42.4437 11.2829C45.3301 12.4192 47.9319 14.1236 50.2085 16.2743C50.6963 16.7613 51.4281 16.9642 52.0785 16.8019C52.485 16.7207 52.8916 16.5178 53.2981 16.2337C54.0705 15.7062 54.8429 15.1787 55.6153 14.6511C55.7373 14.5699 55.8593 14.4888 55.9812 14.4076C57.3228 15.9903 58.5017 17.6946 59.4774 19.5208C58.8269 19.9672 58.1765 20.4135 57.526 20.8599L56.9975 21.2252C56.591 21.5092 56.2658 21.7121 55.9812 22.0368C55.4527 22.6049 55.2901 23.4571 55.6153 24.1875C56.8349 27.0687 57.4854 30.1123 57.526 33.1964C57.526 33.9674 57.9732 34.6573 58.705 34.982C59.0302 35.1443 59.3554 35.2254 59.7619 35.3066C60.8189 35.4689 61.8759 35.6718 62.9329 35.8747C62.8516 36.8892 62.7296 37.9443 62.5264 38.9588C62.3231 39.9734 62.0792 40.9879 61.7946 41.9618C61.4287 41.8806 61.0222 41.7995 60.6563 41.7589C59.8433 41.5966 59.0708 41.4748 58.2578 41.3125C58.1358 41.2719 58.0139 41.2719 57.8919 41.2719C56.9975 41.1908 56.1438 41.6777 55.8186 42.5299C54.6397 45.4517 52.8916 48.0895 50.6963 50.362C50.1272 50.9301 49.9646 51.8229 50.2898 52.5939C50.3711 52.7968 50.493 53.0403 50.6963 53.2838C51.3061 54.136 51.9159 55.0287 52.5257 55.9215L52.607 56.0838C50.9402 57.3418 49.2328 58.4781 47.4441 59.452Z" fill="black" stroke="white" stroke-width="1.6" mask="url(#path-2-inside-1_9_3)"/>
<path d="M46.1393 21.4212L46.1409 21.4229C47.449 22.7682 48.5226 24.3543 49.3595 26.1045C50.5096 28.5194 51.0671 31.256 51.0282 33.9155C50.9883 34.8628 50.8697 35.8144 50.7099 36.7732C50.5085 37.6971 50.2696 38.6471 49.9546 39.5118L49.9541 39.5133C49.0397 42.0529 47.5293 44.3931 45.5442 46.2557L45.5438 46.2562C44.1523 47.5658 42.5619 48.6374 40.8524 49.4311L40.8523 49.4311C38.5479 50.502 36.0037 51.0577 33.4594 51.0577H33.4587H33.458H33.4572H33.4565H33.4558H33.4551H33.4544H33.4536H33.4529H33.4522H33.4515H33.4507H33.45H33.4493H33.4486H33.4478H33.4471H33.4464H33.4456H33.4449H33.4442H33.4434H33.4427H33.442H33.4412H33.4405H33.4398H33.439H33.4383H33.4375H33.4368H33.436H33.4353H33.4346H33.4338H33.4331H33.4323H33.4316H33.4308H33.4301H33.4293H33.4286H33.4278H33.4271H33.4263H33.4256H33.4248H33.424H33.4233H33.4225H33.4218H33.421H33.4202H33.4195H33.4187H33.418H33.4172H33.4164H33.4157H33.4149H33.4141H33.4134H33.4126H33.4118H33.4111H33.4103H33.4095H33.4087H33.408H33.4072H33.4064H33.4056H33.4049H33.4041H33.4033H33.4025H33.4017H33.401H33.4002H33.3994H33.3986H33.3978H33.397H33.3963H33.3955H33.3947H33.3939H33.3931H33.3923H33.3915H33.3907H33.3899H33.3891H33.3884H33.3876H33.3868H33.386H33.3852H33.3844H33.3836H33.3828H33.382H33.3812H33.3804H33.3796H33.3788H33.378H33.3772H33.3764H33.3755H33.3747H33.3739H33.3731H33.3723H33.3715H33.3707H33.3699H33.3691H33.3683H33.3675H33.3666H33.3658H33.365H33.3642H33.3634H33.3626H33.3617H33.3609H33.3601H33.3593H33.3585H33.3576H33.3568H33.356H33.3552H33.3544H33.3535H33.3527H33.3519H33.3511H33.3502H33.3494H33.3486H33.3477H33.3469H33.3461H33.3452H33.3444H33.3436H33.3427H33.3419H33.3411H33.3402H33.3394H33.3386H33.3377H33.3369H33.3361H33.3352H33.3344H33.3335H33.3327H33.3319H33.331H33.3302H33.3293H33.3285H33.3276H33.3268H33.3259H33.3251H33.3242H33.3234H33.3226H33.3217H33.3209H33.32H33.3192H33.3183H33.3174H33.3166H33.3157H33.3149H33.314H33.3132H33.3123H33.3115H33.3106H33.3097H33.3089H33.308H33.3072H33.3063H33.3055H33.3046H33.3037H33.3029H33.302H33.3011H33.3003H33.2994H33.2985H33.2977H33.2968H33.2959H33.2951H33.2942H33.2933H33.2925H33.2916H33.2907H33.2899H33.289H33.2881H33.2872H33.2864H33.2855H33.2846H33.2838H33.2829H33.282H33.2811H33.2802H33.2794H33.2785H33.2776H33.2767H33.2759H33.275H33.2741H33.2732H33.2723H33.2715H33.2706H33.2697H33.2688H33.2679H33.267H33.2662H33.2653H33.2644H33.2635H33.2626H33.2617H33.2608H33.2599H33.2591H33.2582H33.2573H33.2564H33.2555H33.2546H33.2537H33.2528H33.2519H33.251H33.2501H33.2492H33.2484H33.2475H33.2466H33.2457H33.2448H33.2439H33.243H33.2421H33.2412H33.2403H33.2394H33.2385H33.2376H33.2367H33.2358H33.2349H33.234H33.2331H33.2322H33.2313H33.2304H33.2295H33.2286H33.2277H33.2268H33.2258H33.2249H33.224H33.2231H33.2222H33.2213H33.2204H33.2195H33.2186H33.2177H33.2168H33.2159H33.215H33.214H33.2131H33.2122H33.2113H33.2104H33.2095H33.2086H33.2077H33.2067H33.2058H33.2049H33.204H33.2031H33.2022H33.2013H33.2003H33.1994H33.1985H33.1976H33.1967H33.1958H33.1948H33.1939H33.193H33.1921H33.1912H33.1902H33.1893H33.1884H33.1875H33.1866H33.1856H33.1847H33.1838H33.1829H33.1819H33.181H33.1801H33.1792H33.1782H33.1773H33.1764H33.1755H33.1745H33.1736H33.1727H33.1718H33.1708H33.1699H33.169H33.1681H33.1671H33.1662H33.1653H33.1643H33.1634H33.1625H33.1615H33.1606H33.1597H33.1588H33.1578H33.1569H33.156H33.155H33.1541H33.1532H33.1522H33.1513H33.1504H33.1494H33.1485H33.1476H33.1466H33.1457H33.1448H33.1438H33.1429H33.142H33.141H33.1401H33.1391H33.1382H33.1373H33.1363H33.1354H33.1345H33.1335H33.1326H33.1316H33.1307H33.1298H33.1288H33.1279H33.127H33.126H33.1251H33.1241H33.1232H33.1223H33.1213H33.1204H33.1194H33.1185H33.1175H33.1166H33.1157H33.1147H33.1138H33.1128H33.1119H33.111H33.11H33.1091H33.1081H33.1072H33.1062H33.1053H33.1043H33.1034H33.1025H33.1015H33.1006H33.0996H33.0987H33.0977H33.0968H33.0958H33.0949H33.0939H33.093H33.0921H33.0911H33.0902H33.0892H33.0883H33.0873H33.0864H33.0854H33.0845H33.0835H33.0826H33.0816H33.0807H33.0797H33.0788H33.0778H33.0769H33.0759H33.075H33.074H33.0731H33.0722H33.0712H33.0703H33.0693H33.0684H33.0674H33.0665H33.0655H33.0646H33.0636H33.0627H33.0617H33.0608H33.0598H33.0589H33.0579H33.0569H33.056H33.055H33.0541H33.0531H33.0522H33.0512H33.0503H33.0493H33.0484H33.0474H33.0465H33.0455H33.0446H33.0436H33.0427H33.0417H33.0408H33.0398H33.0389H33.0379H33.037H33.036H33.0351H33.0341H33.0332H33.0322H33.0313H33.0303H33.0293H33.0284H33.0274H33.0265H33.0255H33.0246H33.0236H33.0227H33.0217H33.0208H33.0198H33.0189H33.0179H33.017H33.016H33.0151H33.0141H33.0132H33.0122C32.1095 51.0577 31.159 50.9399 30.2349 50.7795C29.3217 50.621 28.4095 50.3833 27.5386 50.0672L27.5371 50.0667C24.9945 49.1545 22.6888 47.6469 20.8201 45.7022L20.8185 45.7005C19.5066 44.3513 18.3946 42.7648 17.6014 41.0624L17.5999 41.0594C16.4479 38.6406 15.8522 35.9044 15.9311 33.211C15.9708 32.3026 16.0897 31.3496 16.2498 30.389C16.4509 29.4266 16.6897 28.4765 17.0047 27.6118C17.9182 25.1141 19.4283 22.8126 21.3762 20.9472C22.7706 19.635 24.3603 18.5254 26.1038 17.7343L26.1039 17.7343L26.1101 17.7314C28.5311 16.5825 31.2732 16.0267 33.9353 16.106L33.9353 16.1062H33.9472C34.8499 16.1062 35.8004 16.224 36.7245 16.3844C37.6378 16.5429 38.5499 16.7806 39.4209 17.0967L39.4208 17.0968L39.4275 17.0991C41.9661 17.9702 44.2704 19.4762 46.1393 21.4212ZM39.4828 46.4634L39.4828 46.4635L39.4877 46.4611C40.8578 45.798 42.1549 44.9643 43.2889 43.8745C44.8769 42.3724 46.129 40.4564 46.8818 38.4144C47.1783 37.6935 47.3878 36.8954 47.5134 36.1435C47.6378 35.3984 47.7218 34.606 47.7221 33.8089C47.7633 31.6401 47.3038 29.4299 46.3834 27.4671L46.383 27.4663C45.7148 26.0491 44.8367 24.7544 43.7479 23.6258L43.7464 23.6242C42.2002 22.0391 40.32 20.8295 38.2722 20.0786L38.2722 20.0786L38.2674 20.0769C37.5626 19.8286 36.8118 19.6197 36.0561 19.4932C35.3 19.3263 34.5427 19.2425 33.7846 19.2425H33.7839H33.7832H33.7825H33.7817H33.781H33.7803H33.7796H33.7789H33.7782H33.7775H33.7767H33.776H33.7753H33.7746H33.7739H33.7732H33.7725H33.7717H33.771H33.7703H33.7696H33.7689H33.7682H33.7675H33.7667H33.766H33.7653H33.7646H33.7639H33.7632H33.7625H33.7617H33.761H33.7603H33.7596H33.7589H33.7582H33.7575H33.7567H33.756H33.7553H33.7546H33.7539H33.7532H33.7525H33.7517H33.751H33.7503H33.7496H33.7489H33.7482H33.7474H33.7467H33.746H33.7453H33.7446H33.7439H33.7432H33.7424H33.7417H33.741H33.7403H33.7396H33.7389H33.7382H33.7374H33.7367H33.736H33.7353H33.7346H33.7339H33.7332H33.7324H33.7317H33.731H33.7303H33.7296H33.7289H33.7282H33.7274H33.7267H33.726H33.7253H33.7246H33.7239H33.7232H33.7224H33.7217H33.721H33.7203H33.7196H33.7189H33.7182H33.7174H33.7167H33.716H33.7153H33.7146H33.7139H33.7131H33.7124H33.7117H33.711H33.7103H33.7096H33.7089H33.7081H33.7074H33.7067H33.706H33.7053H33.7046H33.7039H33.7031H33.7024H33.7017H33.701H33.7003H33.6996H33.6989H33.6981H33.6974H33.6967H33.696H33.6953H33.6946H33.6939H33.6931H33.6924H33.6917H33.691H33.6903H33.6896H33.6889H33.6881H33.6874H33.6867H33.686H33.6853H33.6846H33.6838H33.6831H33.6824H33.6817H33.681H33.6803H33.6796H33.6788H33.6781H33.6774H33.6767H33.676H33.6753H33.6746H33.6738H33.6731H33.6724H33.6717H33.671H33.6703H33.6696H33.6688H33.6681H33.6674H33.6667H33.666H33.6653H33.6646H33.6638H33.6631H33.6624H33.6617H33.661H33.6603H33.6596H33.6588H33.6581H33.6574H33.6567H33.656H33.6553H33.6546H33.6538H33.6531H33.6524H33.6517H33.651H33.6503H33.6495H33.6488H33.6481H33.6474H33.6467H33.646H33.6453H33.6445H33.6438H33.6431H33.6424H33.6417H33.641H33.6403H33.6395H33.6388H33.6381H33.6374H33.6367H33.636H33.6353H33.6345H33.6338H33.6331H33.6324H33.6317H33.631H33.6303H33.6295H33.6288H33.6281H33.6274H33.6267H33.626H33.6253H33.6245H33.6238H33.6231H33.6224H33.6217H33.621H33.6202H33.6195H33.6188H33.6181H33.6174H33.6167H33.616H33.6152H33.6145H33.6138H33.6131H33.6124H33.6117H33.611H33.6102H33.6095H33.6088H33.6081H33.6074H33.6067H33.606H33.6052H33.6045H33.6038H33.6031H33.6024H33.6017H33.601H33.6002H33.5995H33.5988H33.5981H33.5974H33.5967H33.596H33.5952H33.5945H33.5938H33.5931H33.5924H33.5917H33.591H33.5902H33.5895H33.5888H33.5881H33.5874H33.5867H33.5859H33.5852H33.5845H33.5838H33.5831H33.5824H33.5817H33.5809H33.5802H33.5795H33.5788H33.5781H33.5774H33.5767H33.5759H33.5752H33.5745H33.5738H33.5731H33.5724H33.5717H33.5709H33.5702H33.5695H33.5688H33.5681H33.5674H33.5667H33.5659H33.5652H33.5645H33.5638H33.5631H33.5624H33.5617H33.5609H33.5602H33.5595H33.5588H33.5581H33.5574H33.5567H33.5559H33.5552H33.5545H33.5538H33.5531H33.5524H33.5516H33.5509H33.5502H33.5495H33.5488H33.5481H33.5474H33.5466H33.5459H33.5452H33.5445H33.5438H33.5431H33.5424H33.5416H33.5409H33.5402H33.5395H33.5388H33.5381H33.5374H33.5366H33.5359H33.5352H33.5345H33.5338H33.5331H33.5324H33.5316H33.5309H33.5302H33.5295H33.5288H33.5281H33.5274H33.5266H33.5259H33.5252H33.5245H33.5238H33.5231H33.5223H33.5216H33.5209H33.5202H33.5195H33.5188H33.5181H33.5173H33.5166H33.5159H33.5152H33.5145H33.5138H33.5131H33.5123H33.5116H33.5109H33.5102H33.5095H33.5088H33.5081H33.5073H33.5066H33.5059H33.5052H33.5045H33.5038H33.5031H33.5023H33.5016H33.5009H33.5002H33.4995H33.4988H33.4981H33.4973H33.4966H33.4959H33.4952H33.4945H33.4938H33.493H33.4923H33.4916H33.4909H33.4902H33.4895H33.4888H33.488H33.4873H33.4866H33.4859H33.4852H33.4845H33.4838H33.483H33.4823H33.4816H33.4809H33.4802H33.4795H33.4788H33.478H33.4773H33.4766H33.4759H33.4752H33.4745H33.4738H33.473H33.4723H33.4716H33.4709H33.4702H33.4695H33.4688H33.468H33.4673H33.4666H33.4659H33.4652H33.4645H33.4638H33.463H33.4623H33.4616H33.4609H33.4602H33.4595H33.4587H33.458H33.4573H33.4566H33.4559H33.4552H33.4545H33.4537H33.453H33.4523H33.4516H33.4509H33.4502H33.4495H33.4487H33.448H33.4473H33.4466H33.4459H33.4452H33.4445H33.4437H33.443H33.4423H33.4416H33.4409H33.4402H33.4395H33.4387H33.438H33.4373H33.4366H33.4359H33.4352H33.4345H33.4337H33.433H33.4323H33.4316H33.4309H33.4302H33.4294H33.4287H33.428H33.4273H33.4266H33.4259H33.4252H33.4244H33.4237H33.423H33.4223H33.4216H33.4209H33.4202H33.4194H33.4187C31.3272 19.2425 29.2776 19.7019 27.3958 20.5785L27.3946 20.5791C25.9754 21.2457 24.679 22.1219 23.5486 23.2082C21.9595 24.7113 20.7485 26.5872 19.9964 28.6278C19.7009 29.3459 19.4918 30.1408 19.3662 30.8903C19.1995 31.683 19.1157 32.4774 19.1154 33.2332C19.0742 35.4023 19.5338 37.6133 20.4957 39.6177C21.1656 41.0382 22.0446 42.2911 23.1302 43.4164L23.1317 43.418C24.6779 45.0031 26.5582 46.2127 28.6059 46.9636L28.6059 46.9636L28.6107 46.9653C29.3155 47.2136 30.0664 47.4225 30.8221 47.549C31.5768 47.7156 32.3328 47.7993 33.0896 47.7996C35.302 47.8407 37.516 47.3824 39.4828 46.4634Z" fill="black" stroke="white" stroke-width="0.8"/>
</svg>
