<svg width="70" height="55" viewBox="0 0 70 55" fill="none" xmlns="http://www.w3.org/2000/svg">
<path d="M66.5573 28.112H59.509L57.5376 15.3811C58.8079 16.2187 60.3306 16.7077 61.9671 16.7077C66.3967 16.7077 70 13.1266 70 8.72837C70 4.33009 66.3967 0.75 61.9671 0.75C57.5376 0.75 53.9342 4.32887 53.9342 8.72837C53.9342 9.65281 54.1017 10.5371 54.3945 11.3636L50.0041 7.62983C49.1113 6.87073 47.9741 6.45713 46.8 6.45713H30.9834C29.0855 6.45713 27.5407 7.99115 27.5407 9.8765C27.5407 11.7619 29.0852 13.2959 30.9834 13.2959H45.1912L33.2487 22.6111C31.0799 24.3036 29.8358 26.844 29.8358 29.584C29.8358 32.6158 31.369 35.4035 33.9383 37.0447L44.5875 43.8433L35.6103 47.5589C34.7085 47.9316 33.9992 48.6679 33.6641 49.5775C33.329 50.4893 33.3921 51.5071 33.8396 52.371C34.4592 53.5653 35.6872 54.2607 36.9644 54.2607C37.4383 54.2607 37.9191 54.1649 38.3769 53.9633L50.752 48.538C52.6845 47.6445 53.934 45.6966 53.934 43.5766C53.934 42.1338 53.3452 40.7226 52.3183 39.705L45.2849 32.7184L51.9153 26.9546L52.4272 31.02C52.7082 33.2597 54.6327 34.951 56.9038 34.951H66.5568C68.4548 34.951 69.9995 33.417 69.9995 31.5316C70 29.646 68.4555 28.112 66.5573 28.112ZM61.9671 3.02828C65.1308 3.02828 67.7049 5.58473 67.7049 8.72715C67.7049 11.8696 65.131 14.426 61.9671 14.426C58.8035 14.426 56.2293 11.8696 56.2293 8.72715C56.2293 5.58473 58.8035 3.02828 61.9671 3.02828ZM66.5573 32.671H56.9042C55.7889 32.671 54.8432 31.8377 54.7044 30.738L53.6566 22.4156L41.9264 32.6073L50.6959 41.3173C51.2962 41.9111 51.6392 42.7341 51.6392 43.5773C51.6392 44.814 50.9094 45.9514 49.8031 46.4642L37.4486 51.8791C36.8611 52.14 36.1724 51.8961 35.8786 51.3298C35.7215 51.0254 35.7007 50.6835 35.8179 50.3621C35.9362 50.0431 36.1749 49.7946 36.4916 49.6635L46.2446 45.6278C46.8838 45.3645 47.3188 44.7753 47.3795 44.0904C47.4402 43.4054 47.1168 42.7489 46.5349 42.3784L35.179 35.127C33.2707 33.9064 32.1311 31.8343 32.1311 29.5811C32.1311 27.5455 33.056 25.6557 34.6671 24.3975L48.7749 13.3931L46.3765 11.0156H30.9834C30.3511 11.0156 29.8358 10.505 29.8358 9.87578C29.8358 9.24651 30.3511 8.73591 30.9834 8.73591H46.8C47.4265 8.73591 48.0336 8.95474 48.5098 9.35933L55.1597 15.0239L57.5398 30.3913H66.557C67.1894 30.3913 67.7047 30.9019 67.7047 31.5311C67.7047 32.1604 67.1896 32.671 66.5573 32.671Z" fill="black"/>
<path d="M16.8896 51.4733C16.3136 52.1242 15.3439 52.2358 14.6359 51.7342C14.2481 51.4594 14.0001 51.0492 13.9394 50.5807C13.8787 50.1112 14.0129 49.6541 14.3181 49.2906L29.5712 31.1115L27.8086 29.6514L12.5543 47.8314C11.8463 48.6749 11.5215 49.7839 11.6627 50.8734C11.804 51.963 12.4018 52.9536 13.3024 53.5918C14.0048 54.0888 14.8136 54.3302 15.6181 54.3302C16.729 54.3302 17.8294 53.8675 18.6155 52.9762L31.8467 37.9726L30.1195 36.4704L16.8896 51.4733Z" fill="black"/>
<path d="M30.2469 16.0565H9.50616V17.7849H30.2469V16.0565Z" fill="black"/>
<path d="M6.04938 16.0565H2.59259V17.7849H6.04938V16.0565Z" fill="black"/>
<path d="M25.9259 20.3776H11.2346V22.106H25.9259V20.3776Z" fill="black"/>
<path d="M7.77777 20.3776H4.32098V22.106H7.77777V20.3776Z" fill="black"/>
<path d="M26.7901 25.5627H12.963V27.2911H26.7901V25.5627Z" fill="black"/>
<path d="M10.3704 25.5627H6.91357V27.2911H10.3704V25.5627Z" fill="black"/>
<path d="M23.3333 11.7355H6.91357V13.4639H23.3333V11.7355Z" fill="black"/>
<path d="M4.32099 11.7355H0V13.4639H4.32099V11.7355Z" fill="black"/>
</svg>
